-vsync is deprecated. Use -fps_mode
Passing a number to -vsync is deprecated, use a string argument as described in the manual.
[h264 @ 0x6323ee52ea40] Reinit context to 1280x720, pix_fmt: yuv420p
Input #0, mov,mp4,m4a,3gp,3g2,mj2, from '/var/www/html/project/media/video/original/WhatsApp_Video_2026-02-14_at_09.21.50.mp4':
  Metadata:
    major_brand     : mp42
    minor_version   : 0
    compatible_brands: mp42isom
  Duration: 00:00:36.10, start: 0.000000, bitrate: 12169 kb/s
  Stream #0:0[0x1](und): Audio: aac (LC) (mp4a / 0x6134706D), 48000 Hz, stereo, fltp, 137 kb/s (default)
    Metadata:
      vendor_id       : [0][0][0][0]
  Stream #0:1[0x2](und): Video: h264 (High), 1 reference frame (avc1 / 0x31637661), yuv420p(tv, bt709, progressive, left), 1280x720, 12050 kb/s, 30 fps, 30 tbr, 30k tbn (default)
    Metadata:
      vendor_id       : [0][0][0][0]
[h264 @ 0x6323ee5ff900] Reinit context to 1280x720, pix_fmt: yuv420p
Input #1, mov,mp4,m4a,3gp,3g2,mj2, from '/var/www/html/project/static/images/templates/Codino.mp4':
  Metadata:
    major_brand     : mp42
    minor_version   : 1
    compatible_brands: isommp41mp42
    creation_time   : 2021-07-11T07:02:58.000000Z
  Duration: 00:00:02.00, start: 0.000000, bitrate: 1007 kb/s
  Stream #1:0[0x1](ita): Audio: aac (LC) (mp4a / 0x6134706D), 44100 Hz, stereo, fltp, 102 kb/s (default)
    Metadata:
      creation_time   : 2021-07-11T07:02:58.000000Z
      handler_name    : Core Media Audio
      vendor_id       : [0][0][0][0]
  Stream #1:1[0x2](und): Video: h264 (High), 1 reference frame (avc1 / 0x31637661), yuv420p(tv, bt709, progressive, left), 1280x720 [SAR 1:1 DAR 16:9], 813 kb/s, 25 fps, 25 tbr, 25k tbn (default)
    Metadata:
      creation_time   : 2021-07-11T07:02:58.000000Z
      handler_name    : Core Media Video
      vendor_id       : [0][0][0][0]
[out#0/mp4 @ 0x6323f02bd380] Adding streams from explicit maps...
[out#0/mp4 @ 0x6323f02bd380] Creating output stream from an explicitly mapped complex filtergraph 0, output [v]
[vost#0:0/libx264 @ 0x6323f02bdd80] Created video stream from complex filtergraph 0:[concat]
[vost#0:0/libx264 @ 0x6323f02bdd80] 
[out#0/mp4 @ 0x6323f02bd380] Creating output stream from an explicitly mapped complex filtergraph 0, output [a]
[aost#0:1/aac @ 0x6323f02bf800] Created audio stream from complex filtergraph 0:[concat]
[aost#0:1/aac @ 0x6323f02bf800] 
Stream mapping:
  Stream #0:0 (aac) -> concat
  Stream #0:1 (h264) -> scale:default
  Stream #1:0 (aac) -> concat
  Stream #1:1 (h264) -> scale:default
  concat -> Stream #0:0 (libx264)
  concat -> Stream #0:1 (aac)
Press [q] to stop, [?] for help
[h264 @ 0x6323ee55e840] Reinit context to 1280x720, pix_fmt: yuv420p
[h264 @ 0x6323ee987640] Reinit context to 1280x720, pix_fmt: yuv420p
[Parsed_scale_0 @ 0x6323ee5149c0] w:1920 h:1080 flags:'' interl:0
[Parsed_scale_2 @ 0x6323f03ac880] w:1920 h:1080 flags:'' interl:0
[graph 0 input from stream 0:1 @ 0x6323f03ba600] w:1280 h:720 pixfmt:yuv420p tb:1/30000 fr:30/1 sar:0/1
[graph 0 input from stream 1:1 @ 0x6323ee6018c0] w:1280 h:720 pixfmt:yuv420p tb:1/25000 fr:25/1 sar:1/1
[graph_0_in_0_0 @ 0x6323ee6019c0] tb:1/48000 samplefmt:fltp samplerate:48000 chlayout:stereo
[graph_0_in_1_0 @ 0x6323f03baa00] tb:1/44100 samplefmt:fltp samplerate:44100 chlayout:stereo
[Parsed_concat_4 @ 0x6323f03b9c80] auto-inserting filter 'auto_aresample_0' between the filter 'graph_0_in_1_0' and the filter 'Parsed_concat_4'
[Parsed_scale_0 @ 0x6323ee5149c0] w:1280 h:720 fmt:yuv420p sar:0/1 -> w:1920 h:1080 fmt:yuv420p sar:0/1 flags:0x00000004
[Parsed_setsar_1 @ 0x6323ee530380] w:1920 h:1080 sar:0/1 dar:16/9 -> sar:1/1 dar:16/9
[Parsed_scale_2 @ 0x6323f03ac880] w:1280 h:720 fmt:yuv420p sar:1/1 -> w:1920 h:1080 fmt:yuv420p sar:1/1 flags:0x00000004
[Parsed_setsar_3 @ 0x6323f03b99c0] w:1920 h:1080 sar:1/1 dar:16/9 -> sar:1/1 dar:16/9
[auto_aresample_0 @ 0x6323f03be680] ch:2 chl:stereo fmt:fltp r:44100Hz -> ch:2 chl:stereo fmt:fltp r:48000Hz
[Parsed_concat_4 @ 0x6323f03b9c80] Video inputs have different frame rates, output will be VFR
[Parsed_scale_0 @ 0x6323ee5149c0] w:1280 h:720 fmt:yuv420p sar:0/1 -> w:1920 h:1080 fmt:yuv420p sar:0/1 flags:0x00000004
    Last message repeated 2 times
[Parsed_scale_2 @ 0x6323f03ac880] w:1280 h:720 fmt:yuv420p sar:1/1 -> w:1920 h:1080 fmt:yuv420p sar:1/1 flags:0x00000004
    Last message repeated 2 times
[libx264 @ 0x6323f02be140] using SAR=1/1
[libx264 @ 0x6323f02be140] MB rate (8160000000) > level limit (16711680)
[libx264 @ 0x6323f02be140] using cpu capabilities: MMX2 SSE2Fast SSSE3 SSE4.2 AVX FMA3 BMI2 AVX2
[libx264 @ 0x6323f02be140] profile High, level 6.2, 4:2:0, 8-bit
[libx264 @ 0x6323f02be140] 264 - core 164 r3108 31e19f9 - H.264/MPEG-4 AVC codec - Copyleft 2003-2023 - http://www.videolan.org/x264.html - options: cabac=1 ref=1 deblock=1:0:0 analyse=0x3:0x113 me=hex subme=2 psy=1 psy_rd=1.00:0.00 mixed_ref=0 me_range=16 chroma_me=1 trellis=0 8x8dct=1 cqm=0 deadzone=21,11 fast_pskip=1 chroma_qp_offset=0 threads=24 lookahead_threads=8 sliced_threads=0 nr=0 decimate=1 interlaced=0 bluray_compat=0 constrained_intra=0 bframes=3 b_pyramid=2 b_adapt=1 b_bias=0 direct=1 weightb=1 open_gop=0 weightp=1 keyint=250 keyint_min=25 scenecut=40 intra_refresh=0 rc_lookahead=10 rc=crf mbtree=1 crf=18.0 qcomp=0.60 qpmin=0 qpmax=69 qpstep=4 ip_ratio=1.40 aq=1:1.00
Output #0, mp4, to '/var/www/html/project/media/video/watermarks/WhatsApp_Video_2026-02-14_at_09.21.50.mp4':
  Metadata:
    major_brand     : mp42
    minor_version   : 0
    compatible_brands: mp42isom
    encoder         : Lavf60.16.100
  Stream #0:0: Video: h264, 1 reference frame (avc1 / 0x31637661), yuv420p(tv, bt709, progressive, left), 1920x1080 (0x0) [SAR 1:1 DAR 16:9], q=2-31, 1000k tbn
    Metadata:
      encoder         : Lavc60.31.102 libx264
    Side data:
      cpb: bitrate max/min/avg: 0/0/0 buffer size: 0 vbv_delay: N/A
  Stream #0:1: Audio: aac (LC) (mp4a / 0x6134706D), 48000 Hz, stereo, fltp, delay 1024, 128 kb/s
    Metadata:
      encoder         : Lavc60.31.102 aac
[in#0/mov,mp4,m4a,3gp,3g2,mj2 @ 0x6323ee52b1c0] EOF while reading input
[in#0/mov,mp4,m4a,3gp,3g2,mj2 @ 0x6323ee52b1c0] Terminating demuxer thread
[aist#0:0/aac @ 0x6323ee555a00] Decoder thread received EOF packet
[aist#0:0/aac @ 0x6323ee555a00] Decoder returned EOF, finishing
[aist#0:0/aac @ 0x6323ee555a00] Terminating decoder thread
[Parsed_concat_4 @ 0x6323f03b9c80] EOF on in0:a0, 1 streams left in segment.
[vist#0:1/h264 @ 0x6323ee521600] Decoder thread received EOF packet
[vist#0:1/h264 @ 0x6323ee521600] Decoder returned EOF, finishing
[vist#0:1/h264 @ 0x6323ee521600] Terminating decoder thread
[Parsed_concat_4 @ 0x6323f03b9c80] EOF on in0:v0, 0 streams left in segment.
[Parsed_concat_4 @ 0x6323f03b9c80] Segment finished at pts=36096000
[in#1/mov,mp4,m4a,3gp,3g2,mj2 @ 0x6323ee5e7540] EOF while reading input
[in#1/mov,mp4,m4a,3gp,3g2,mj2 @ 0x6323ee5e7540] Terminating demuxer thread
[aist#1:0/aac @ 0x6323ee5510c0] Decoder thread received EOF packet
[aist#1:0/aac @ 0x6323ee5510c0] Decoder returned EOF, finishing
[aist#1:0/aac @ 0x6323ee5510c0] Terminating decoder thread
[vist#1:1/h264 @ 0x6323ee52d840] Decoder thread received EOF packet
[vist#1:1/h264 @ 0x6323ee52d840] Decoder returned EOF, finishing
[vist#1:1/h264 @ 0x6323ee52d840] Terminating decoder thread
[Parsed_concat_4 @ 0x6323f03b9c80] EOF on in1:v0, 1 streams left in segment.
[Parsed_concat_4 @ 0x6323f03b9c80] EOF on in1:a0, 0 streams left in segment.
[Parsed_concat_4 @ 0x6323f03b9c80] Segment finished at pts=38114687
No more output streams to write to, finishing.
[out#0/mp4 @ 0x6323f02bd380] All streams finished
[out#0/mp4 @ 0x6323f02bd380] Terminating muxer thread
[AVIOContext @ 0x6323f038ab80] Statistics: 54168336 bytes written, 2 seeks, 210 writeouts
[out#0/mp4 @ 0x6323f02bd380] Output file #0 (/var/www/html/project/media/video/watermarks/WhatsApp_Video_2026-02-14_at_09.21.50.mp4):
[out#0/mp4 @ 0x6323f02bd380]   Output stream #0:0 (video): 1131 frames encoded; 1131 packets muxed (53515476 bytes); 
[out#0/mp4 @ 0x6323f02bd380]   Output stream #0:1 (audio): 1787 frames encoded (1829505 samples); 1788 packets muxed (604820 bytes); 
[out#0/mp4 @ 0x6323f02bd380]   Total: 2919 packets (54120296 bytes) muxed
[out#0/mp4 @ 0x6323f02bd380] video:52261kB audio:591kB subtitle:0kB other streams:0kB global headers:0kB muxing overhead: 0.088758%
frame= 1131 fps= 78 q=-1.0 Lsize=   52899kB time=00:00:38.10 bitrate=11373.5kbits/s speed=2.63x    
[AVIOContext @ 0x6323ee522ac0] Statistics: 6093 bytes written, 0 seeks, 30 writeouts
[libx264 @ 0x6323f02be140] frame I:7     Avg QP:16.03  size:110614
[libx264 @ 0x6323f02be140] frame P:426   Avg QP:18.82  size: 68231
[libx264 @ 0x6323f02be140] frame B:698   Avg QP:20.27  size: 33917
[libx264 @ 0x6323f02be140] consecutive B-frames: 13.4%  8.5% 13.0% 65.1%
[libx264 @ 0x6323f02be140] mb I  I16..4: 17.8% 39.8% 42.4%
[libx264 @ 0x6323f02be140] mb P  I16..4: 12.6% 30.0% 10.0%  P16..4: 17.6% 12.9%  8.2%  0.0%  0.0%    skip: 8.7%
[libx264 @ 0x6323f02be140] mb B  I16..4:  4.4%  7.0%  1.3%  B16..8: 29.9% 15.2%  2.7%  direct:14.4%  skip:25.0%  L0:44.2% L1:41.1% BI:14.6%
[libx264 @ 0x6323f02be140] 8x8 transform intra:56.1% inter:42.0%
[libx264 @ 0x6323f02be140] coded y,uvDC,uvAC intra: 56.1% 59.6% 12.8% inter: 23.3% 28.8% 0.6%
[libx264 @ 0x6323f02be140] i16 v,h,dc,p: 44% 30% 17%  8%
[libx264 @ 0x6323f02be140] i8 v,h,dc,ddl,ddr,vr,hd,vl,hu: 23% 30% 17%  4%  6%  5%  6%  4%  6%
[libx264 @ 0x6323f02be140] i4 v,h,dc,ddl,ddr,vr,hd,vl,hu: 21% 28% 10%  5%  8%  7%  9%  6%  6%
[libx264 @ 0x6323f02be140] i8c dc,h,v,p: 49% 24% 19%  8%
[libx264 @ 0x6323f02be140] Weighted P-Frames: Y:1.9% UV:0.7%
[libx264 @ 0x6323f02be140] kb/s:11237.88
[aac @ 0x6323f02bfbc0] Qavg: 1632.335
[in#0/mov,mp4,m4a,3gp,3g2,mj2 @ 0x6323ee52b1c0] Input file #0 (/var/www/html/project/media/video/original/WhatsApp_Video_2026-02-14_at_09.21.50.mp4):
[in#0/mov,mp4,m4a,3gp,3g2,mj2 @ 0x6323ee52b1c0]   Input stream #0:0 (audio): 1692 packets read (618584 bytes); 1692 frames decoded; 0 decode errors (1732608 samples); 
[in#0/mov,mp4,m4a,3gp,3g2,mj2 @ 0x6323ee52b1c0]   Input stream #0:1 (video): 1081 packets read (54275875 bytes); 1081 frames decoded; 0 decode errors; 
[in#0/mov,mp4,m4a,3gp,3g2,mj2 @ 0x6323ee52b1c0]   Total: 2773 packets (54894459 bytes) demuxed
[AVIOContext @ 0x6323ee52b580] Statistics: 89796206 bytes read, 2132 seeks
[in#1/mov,mp4,m4a,3gp,3g2,mj2 @ 0x6323ee5e7540] Input file #1 (/var/www/html/project/static/images/templates/Codino.mp4):
[in#1/mov,mp4,m4a,3gp,3g2,mj2 @ 0x6323ee5e7540]   Input stream #1:0 (audio): 89 packets read (26579 bytes); 87 frames decoded; 0 decode errors (89024 samples); 
[in#1/mov,mp4,m4a,3gp,3g2,mj2 @ 0x6323ee5e7540]   Input stream #1:1 (video): 50 packets read (203365 bytes); 50 frames decoded; 0 decode errors; 
[in#1/mov,mp4,m4a,3gp,3g2,mj2 @ 0x6323ee5e7540]   Total: 139 packets (229944 bytes) demuxed
[AVIOContext @ 0x6323ee600b00] Statistics: 1629219 bytes read, 37 seeks
